<svg xmlns="http://www.w3.org/2000/svg" width="1400" height="1010" viewBox="0 0 1400 1010"><rect x="0.0" y="0.0" width="1400.0" height="1010.0" fill="#fbfaf7" stroke="none" stroke-width="1.0" /><rect x="18.0" y="18.0" width="1364.0" height="974.0" fill="none" stroke="#16161c" stroke-width="1.6" /><rect x="26.0" y="26.0" width="1348.0" height="958.0" fill="none" stroke="#9a94a8" stroke-width="0.6" /><text x="52.0" y="62.0" font-size="20" fill="#16161c" text-anchor="start" font-family=""Hiragino Sans","Noto Sans JP","Yu Gothic UI",ui-sans-serif,system-ui,sans-serif" font-weight="700" >gain_build 建築図面</text><text x="52.0" y="82.0" font-size="11" fill="#5f5a6b" text-anchor="start" font-family=""Hiragino Sans","Noto Sans JP","Yu Gothic UI",ui-sans-serif,system-ui,sans-serif" font-weight="400" >間取りデータから自動生成。この図面がそのまま施工の指示書と積算根拠になる</text><line x1="52.0" y1="96.0" x2="1348.0" y2="96.0" stroke="#16161c" stroke-width="1.2"/><rect x="150.0" y="242.0" width="184.0" height="184.0" fill="#f2eff6" stroke="none" stroke-width="1.0" /><text x="242.0" y="334.0" font-size="12" fill="#16161c" text-anchor="middle" font-family=""Hiragino Sans","Noto Sans JP","Yu Gothic UI",ui-sans-serif,system-ui,sans-serif" font-weight="600" >LDK</text><text x="242.0" y="349.0" font-size="10" fill="#5f5a6b" text-anchor="middle" font-family="ui-monospace,SFMono-Regular,Consolas,monospace" font-weight="400" >16.0 m²</text><rect x="334.0" y="242.0" width="184.0" height="184.0" fill="#f2eff6" stroke="none" stroke-width="1.0" /><text x="426.0" y="334.0" font-size="12" fill="#16161c" text-anchor="middle" font-family=""Hiragino Sans","Noto Sans JP","Yu Gothic UI",ui-sans-serif,system-ui,sans-serif" font-weight="600" >寝室</text><text x="426.0" y="349.0" font-size="10" fill="#5f5a6b" text-anchor="middle" font-family="ui-monospace,SFMono-Regular,Consolas,monospace" font-weight="400" >16.0 m²</text><rect x="150.0" y="150.0" width="92.0" height="92.0" fill="#f2eff6" stroke="none" stroke-width="1.0" /><text x="196.0" y="196.0" font-size="12" fill="#16161c" text-anchor="middle" font-family=""Hiragino Sans","Noto Sans JP","Yu Gothic UI",ui-sans-serif,system-ui,sans-serif" font-weight="600" >玄関</text><text x="196.0" y="211.0" font-size="10" fill="#5f5a6b" text-anchor="middle" font-family="ui-monospace,SFMono-Regular,Consolas,monospace" font-weight="400" >4.0 m²</text><rect x="242.0" y="150.0" width="92.0" height="92.0" fill="#f2eff6" stroke="none" stroke-width="1.0" /><text x="288.0" y="196.0" font-size="12" fill="#16161c" text-anchor="middle" font-family=""Hiragino Sans","Noto Sans JP","Yu Gothic UI",ui-sans-serif,system-ui,sans-serif" font-weight="600" >浴室</text><text x="288.0" y="211.0" font-size="10" fill="#5f5a6b" text-anchor="middle" font-family="ui-monospace,SFMono-Regular,Consolas,monospace" font-weight="400" >4.0 m²</text><rect x="334.0" y="150.0" width="92.0" height="92.0" fill="#f2eff6" stroke="none" stroke-width="1.0" /><text x="380.0" y="196.0" font-size="12" fill="#16161c" text-anchor="middle" font-family=""Hiragino Sans","Noto Sans JP","Yu Gothic UI",ui-sans-serif,system-ui,sans-serif" font-weight="600" >便所</text><text x="380.0" y="211.0" font-size="10" fill="#5f5a6b" text-anchor="middle" font-family="ui-monospace,SFMono-Regular,Consolas,monospace" font-weight="400" >4.0 m²</text><rect x="426.0" y="150.0" width="92.0" height="92.0" fill="#f2eff6" stroke="none" stroke-width="1.0" /><text x="472.0" y="196.0" font-size="12" fill="#16161c" text-anchor="middle" font-family=""Hiragino Sans","Noto Sans JP","Yu Gothic UI",ui-sans-serif,system-ui,sans-serif" font-weight="600" >収納</text><text x="472.0" y="211.0" font-size="10" fill="#5f5a6b" text-anchor="middle" font-family="ui-monospace,SFMono-Regular,Consolas,monospace" font-weight="400" >4.0 m²</text><line x1="150.0" y1="116.0" x2="150.0" y2="460.0" stroke="#9a94a8" stroke-width="0.7" stroke-dasharray="9 3 2 3"/><circle cx="150.0" cy="106.0" r="10" fill="#fbfaf7" stroke="#5f5a6b" stroke-width="0.8"/><text x="150.0" y="110.0" font-size="9" fill="#5f5a6b" text-anchor="middle" font-family="ui-monospace,SFMono-Regular,Consolas,monospace" font-weight="400" >X1</text><line x1="242.0" y1="116.0" x2="242.0" y2="460.0" stroke="#9a94a8" stroke-width="0.7" stroke-dasharray="9 3 2 3"/><circle cx="242.0" cy="106.0" r="10" fill="#fbfaf7" stroke="#5f5a6b" stroke-width="0.8"/><text x="242.0" y="110.0" font-size="9" fill="#5f5a6b" text-anchor="middle" font-family="ui-monospace,SFMono-Regular,Consolas,monospace" font-weight="400" >X2</text><line x1="334.0" y1="116.0" x2="334.0" y2="460.0" stroke="#9a94a8" stroke-width="0.7" stroke-dasharray="9 3 2 3"/><circle cx="334.0" cy="106.0" r="10" fill="#fbfaf7" stroke="#5f5a6b" stroke-width="0.8"/><text x="334.0" y="110.0" font-size="9" fill="#5f5a6b" text-anchor="middle" font-family="ui-monospace,SFMono-Regular,Consolas,monospace" font-weight="400" >X3</text><line x1="426.0" y1="116.0" x2="426.0" y2="460.0" stroke="#9a94a8" stroke-width="0.7" stroke-dasharray="9 3 2 3"/><circle cx="426.0" cy="106.0" r="10" fill="#fbfaf7" stroke="#5f5a6b" stroke-width="0.8"/><text x="426.0" y="110.0" font-size="9" fill="#5f5a6b" text-anchor="middle" font-family="ui-monospace,SFMono-Regular,Consolas,monospace" font-weight="400" >X4</text><line x1="518.0" y1="116.0" x2="518.0" y2="460.0" stroke="#9a94a8" stroke-width="0.7" stroke-dasharray="9 3 2 3"/><circle cx="518.0" cy="106.0" r="10" fill="#fbfaf7" stroke="#5f5a6b" stroke-width="0.8"/><text x="518.0" y="110.0" font-size="9" fill="#5f5a6b" text-anchor="middle" font-family="ui-monospace,SFMono-Regular,Consolas,monospace" font-weight="400" >X5</text><line x1="116.0" y1="426.0" x2="552.0" y2="426.0" stroke="#9a94a8" stroke-width="0.7" stroke-dasharray="9 3 2 3"/><circle cx="106.0" cy="426.0" r="10" fill="#fbfaf7" stroke="#5f5a6b" stroke-width="0.8"/><text x="106.0" y="430.0" font-size="9" fill="#5f5a6b" text-anchor="middle" font-family="ui-monospace,SFMono-Regular,Consolas,monospace" font-weight="400" >Y1</text><line x1="116.0" y1="334.0" x2="552.0" y2="334.0" stroke="#9a94a8" stroke-width="0.7" stroke-dasharray="9 3 2 3"/><circle cx="106.0" cy="334.0" r="10" fill="#fbfaf7" stroke="#5f5a6b" stroke-width="0.8"/><text x="106.0" y="338.0" font-size="9" fill="#5f5a6b" text-anchor="middle" font-family="ui-monospace,SFMono-Regular,Consolas,monospace" font-weight="400" >Y2</text><line x1="116.0" y1="242.0" x2="552.0" y2="242.0" stroke="#9a94a8" stroke-width="0.7" stroke-dasharray="9 3 2 3"/><circle cx="106.0" cy="242.0" r="10" fill="#fbfaf7" stroke="#5f5a6b" stroke-width="0.8"/><text x="106.0" y="246.0" font-size="9" fill="#5f5a6b" text-anchor="middle" font-family="ui-monospace,SFMono-Regular,Consolas,monospace" font-weight="400" >Y3</text><line x1="116.0" y1="150.0" x2="552.0" y2="150.0" stroke="#9a94a8" stroke-width="0.7" stroke-dasharray="9 3 2 3"/><circle cx="106.0" cy="150.0" r="10" fill="#fbfaf7" stroke="#5f5a6b" stroke-width="0.8"/><text x="106.0" y="154.0" font-size="9" fill="#5f5a6b" text-anchor="middle" font-family="ui-monospace,SFMono-Regular,Consolas,monospace" font-weight="400" >Y4</text><rect x="150.0" y="421.4" width="23.0" height="9.2" fill="#2a2731" stroke="none" stroke-width="1.0" /><rect x="219.0" y="421.4" width="23.0" height="9.2" fill="#2a2731" stroke="none" stroke-width="1.0" /><line x1="173.0" y1="421.4" x2="219.0" y2="421.4" stroke="#16161c" stroke-width="0.8"/><line x1="173.0" y1="426.0" x2="219.0" y2="426.0" stroke="#16161c" stroke-width="0.8"/><line x1="173.0" y1="430.6" x2="219.0" y2="430.6" stroke="#16161c" stroke-width="0.8"/><rect x="242.0" y="421.4" width="23.0" height="9.2" fill="#2a2731" stroke="none" stroke-width="1.0" /><rect x="311.0" y="421.4" width="23.0" height="9.2" fill="#2a2731" stroke="none" stroke-width="1.0" /><line x1="265.0" y1="421.4" x2="311.0" y2="421.4" stroke="#16161c" stroke-width="0.8"/><line x1="265.0" y1="426.0" x2="311.0" y2="426.0" stroke="#16161c" stroke-width="0.8"/><line x1="265.0" y1="430.6" x2="311.0" y2="430.6" stroke="#16161c" stroke-width="0.8"/><rect x="334.0" y="421.4" width="23.0" height="9.2" fill="#2a2731" stroke="none" stroke-width="1.0" /><rect x="403.0" y="421.4" width="23.0" height="9.2" fill="#2a2731" stroke="none" stroke-width="1.0" /><line x1="357.0" y1="421.4" x2="403.0" y2="421.4" stroke="#16161c" stroke-width="0.8"/><line x1="357.0" y1="426.0" x2="403.0" y2="426.0" stroke="#16161c" stroke-width="0.8"/><line x1="357.0" y1="430.6" x2="403.0" y2="430.6" stroke="#16161c" stroke-width="0.8"/><rect x="426.0" y="421.4" width="23.0" height="9.2" fill="#2a2731" stroke="none" stroke-width="1.0" /><rect x="495.0" y="421.4" width="23.0" height="9.2" fill="#2a2731" stroke="none" stroke-width="1.0" /><line x1="449.0" y1="421.4" x2="495.0" y2="421.4" stroke="#16161c" stroke-width="0.8"/><line x1="449.0" y1="426.0" x2="495.0" y2="426.0" stroke="#16161c" stroke-width="0.8"/><line x1="449.0" y1="430.6" x2="495.0" y2="430.6" stroke="#16161c" stroke-width="0.8"/><rect x="150.0" y="145.4" width="25.3" height="9.2" fill="#2a2731" stroke="none" stroke-width="1.0" /><rect x="216.7" y="145.4" width="25.3" height="9.2" fill="#2a2731" stroke="none" stroke-width="1.0" /><line x1="175.3" y1="150.0" x2="175.3" y2="108.6" stroke="#16161c" stroke-width="1.1"/><path d="M 175.3 108.6 A 41.4 41.4 0 0 1 216.7 150.0" fill="none" stroke="#5f5a6b" stroke-width="0.8"/><rect x="242.0" y="145.4" width="92.0" height="9.2" fill="#2a2731" stroke="none" stroke-width="1.0" /><rect x="334.0" y="145.4" width="92.0" height="9.2" fill="#2a2731" stroke="none" stroke-width="1.0" /><rect x="426.0" y="145.4" width="92.0" height="9.2" fill="#2a2731" stroke="none" stroke-width="1.0" /><rect x="145.4" y="334.0" width="9.2" height="23.0" fill="#2a2731" stroke="none" stroke-width="1.0" /><rect x="145.4" y="403.0" width="9.2" height="23.0" fill="#2a2731" stroke="none" stroke-width="1.0" /><line x1="145.4" y1="357.0" x2="145.4" y2="403.0" stroke="#16161c" stroke-width="0.8"/><line x1="150.0" y1="357.0" x2="150.0" y2="403.0" stroke="#16161c" stroke-width="0.8"/><line x1="154.6" y1="357.0" x2="154.6" y2="403.0" stroke="#16161c" stroke-width="0.8"/><rect x="145.4" y="242.0" width="9.2" height="92.0" fill="#2a2731" stroke="none" stroke-width="1.0" /><rect x="145.4" y="150.0" width="9.2" height="92.0" fill="#2a2731" stroke="none" stroke-width="1.0" /><rect x="513.4" y="334.0" width="9.2" height="23.0" fill="#2a2731" stroke="none" stroke-width="1.0" /><rect x="513.4" y="403.0" width="9.2" height="23.0" fill="#2a2731" stroke="none" stroke-width="1.0" /><line x1="513.4" y1="357.0" x2="513.4" y2="403.0" stroke="#16161c" stroke-width="0.8"/><line x1="518.0" y1="357.0" x2="518.0" y2="403.0" stroke="#16161c" stroke-width="0.8"/><line x1="522.6" y1="357.0" x2="522.6" y2="403.0" stroke="#16161c" stroke-width="0.8"/><rect x="513.4" y="242.0" width="9.2" height="23.0" fill="#2a2731" stroke="none" stroke-width="1.0" /><rect x="513.4" y="311.0" width="9.2" height="23.0" fill="#2a2731" stroke="none" stroke-width="1.0" /><line x1="513.4" y1="265.0" x2="513.4" y2="311.0" stroke="#16161c" stroke-width="0.8"/><line x1="518.0" y1="265.0" x2="518.0" y2="311.0" stroke="#16161c" stroke-width="0.8"/><line x1="522.6" y1="265.0" x2="522.6" y2="311.0" stroke="#16161c" stroke-width="0.8"/><rect x="513.4" y="150.0" width="9.2" height="92.0" fill="#2a2731" stroke="none" stroke-width="1.0" /><rect x="150.0" y="237.4" width="25.3" height="9.2" fill="#2a2731" stroke="none" stroke-width="1.0" /><rect x="216.7" y="237.4" width="25.3" height="9.2" fill="#2a2731" stroke="none" stroke-width="1.0" /><line x1="175.3" y1="242.0" x2="175.3" y2="200.6" stroke="#16161c" stroke-width="1.1"/><path d="M 175.3 200.6 A 41.4 41.4 0 0 1 216.7 242.0" fill="none" stroke="#5f5a6b" stroke-width="0.8"/><rect x="242.0" y="237.4" width="25.3" height="9.2" fill="#2a2731" stroke="none" stroke-width="1.0" /><rect x="308.7" y="237.4" width="25.3" height="9.2" fill="#2a2731" stroke="none" stroke-width="1.0" /><line x1="267.3" y1="242.0" x2="267.3" y2="200.6" stroke="#16161c" stroke-width="1.1"/><path d="M 267.3 200.6 A 41.4 41.4 0 0 1 308.7 242.0" fill="none" stroke="#5f5a6b" stroke-width="0.8"/><rect x="334.0" y="237.4" width="25.3" height="9.2" fill="#2a2731" stroke="none" stroke-width="1.0" /><rect x="400.7" y="237.4" width="25.3" height="9.2" fill="#2a2731" stroke="none" stroke-width="1.0" /><line x1="359.3" y1="242.0" x2="359.3" y2="200.6" stroke="#16161c" stroke-width="1.1"/><path d="M 359.3 200.6 A 41.4 41.4 0 0 1 400.7 242.0" fill="none" stroke="#5f5a6b" stroke-width="0.8"/><rect x="426.0" y="237.4" width="25.3" height="9.2" fill="#2a2731" stroke="none" stroke-width="1.0" /><rect x="492.7" y="237.4" width="25.3" height="9.2" fill="#2a2731" stroke="none" stroke-width="1.0" /><line x1="451.3" y1="242.0" x2="451.3" y2="200.6" stroke="#16161c" stroke-width="1.1"/><path d="M 451.3 200.6 A 41.4 41.4 0 0 1 492.7 242.0" fill="none" stroke="#5f5a6b" stroke-width="0.8"/><rect x="329.4" y="334.0" width="9.2" height="25.3" fill="#2a2731" stroke="none" stroke-width="1.0" /><rect x="329.4" y="400.7" width="9.2" height="25.3" fill="#2a2731" stroke="none" stroke-width="1.0" /><line x1="334.0" y1="359.3" x2="375.4" y2="359.3" stroke="#16161c" stroke-width="1.1"/><path d="M 375.4 359.3 A 41.4 41.4 0 0 1 334.0 400.7" fill="none" stroke="#5f5a6b" stroke-width="0.8"/><rect x="329.4" y="242.0" width="9.2" height="92.0" fill="#2a2731" stroke="none" stroke-width="1.0" /><rect x="237.4" y="150.0" width="9.2" height="92.0" fill="#2a2731" stroke="none" stroke-width="1.0" /><rect x="329.4" y="150.0" width="9.2" height="92.0" fill="#2a2731" stroke="none" stroke-width="1.0" /><rect x="421.4" y="150.0" width="9.2" height="92.0" fill="#2a2731" stroke="none" stroke-width="1.0" /><line x1="150.0" y1="488.0" x2="518.0" y2="488.0" stroke="#5f5a6b" stroke-width="0.8"/><line x1="147.0" y1="491.0" x2="153.0" y2="485.0" stroke="#5f5a6b" stroke-width="1.0"/><line x1="515.0" y1="491.0" x2="521.0" y2="485.0" stroke="#5f5a6b" stroke-width="1.0"/><text x="334.0" y="483.0" font-size="10" fill="#5f5a6b" text-anchor="middle" font-family="ui-monospace,SFMono-Regular,Consolas,monospace" font-weight="400" >8000</text><line x1="150.0" y1="466.0" x2="242.0" y2="466.0" stroke="#5f5a6b" stroke-width="0.8"/><line x1="147.0" y1="469.0" x2="153.0" y2="463.0" stroke="#5f5a6b" stroke-width="1.0"/><line x1="239.0" y1="469.0" x2="245.0" y2="463.0" stroke="#5f5a6b" stroke-width="1.0"/><text x="196.0" y="461.0" font-size="10" fill="#5f5a6b" text-anchor="middle" font-family="ui-monospace,SFMono-Regular,Consolas,monospace" font-weight="400" >2000</text><line x1="242.0" y1="466.0" x2="334.0" y2="466.0" stroke="#5f5a6b" stroke-width="0.8"/><line x1="239.0" y1="469.0" x2="245.0" y2="463.0" stroke="#5f5a6b" stroke-width="1.0"/><line x1="331.0" y1="469.0" x2="337.0" y2="463.0" stroke="#5f5a6b" stroke-width="1.0"/><text x="288.0" y="461.0" font-size="10" fill="#5f5a6b" text-anchor="middle" font-family="ui-monospace,SFMono-Regular,Consolas,monospace" font-weight="400" >2000</text><line x1="334.0" y1="466.0" x2="426.0" y2="466.0" stroke="#5f5a6b" stroke-width="0.8"/><line x1="331.0" y1="469.0" x2="337.0" y2="463.0" stroke="#5f5a6b" stroke-width="1.0"/><line x1="423.0" y1="469.0" x2="429.0" y2="463.0" stroke="#5f5a6b" stroke-width="1.0"/><text x="380.0" y="461.0" font-size="10" fill="#5f5a6b" text-anchor="middle" font-family="ui-monospace,SFMono-Regular,Consolas,monospace" font-weight="400" >2000</text><line x1="426.0" y1="466.0" x2="518.0" y2="466.0" stroke="#5f5a6b" stroke-width="0.8"/><line x1="423.0" y1="469.0" x2="429.0" y2="463.0" stroke="#5f5a6b" stroke-width="1.0"/><line x1="515.0" y1="469.0" x2="521.0" y2="463.0" stroke="#5f5a6b" stroke-width="1.0"/><text x="472.0" y="461.0" font-size="10" fill="#5f5a6b" text-anchor="middle" font-family="ui-monospace,SFMono-Regular,Consolas,monospace" font-weight="400" >2000</text><line x1="88.0" y1="150.0" x2="88.0" y2="426.0" stroke="#5f5a6b" stroke-width="0.8"/><line x1="85.0" y1="153.0" x2="91.0" y2="147.0" stroke="#5f5a6b" stroke-width="1.0"/><line x1="85.0" y1="429.0" x2="91.0" y2="423.0" stroke="#5f5a6b" stroke-width="1.0"/><text x="82.0" y="291.0" font-size="10" fill="#5f5a6b" text-anchor="middle" font-family="ui-monospace,SFMono-Regular,Consolas,monospace" font-weight="400" transform="rotate(-90 82.0 291.0)">6000</text><line x1="130.0" y1="334.0" x2="538.0" y2="334.0" stroke="#7a3b2e" stroke-width="1.2" stroke-dasharray="14 4 3 4"/><text x="124.0" y="338.0" font-size="11" fill="#7a3b2e" text-anchor="middle" font-family="ui-monospace,SFMono-Regular,Consolas,monospace" font-weight="700" >A</text><text x="544.0" y="338.0" font-size="11" fill="#7a3b2e" text-anchor="middle" font-family="ui-monospace,SFMono-Regular,Consolas,monospace" font-weight="700" >A</text><path d="M 576.0 150.0 L 569.0 174.0 L 576.0 168.0 L 583.0 174.0 Z" fill="#16161c"/><text x="576.0" y="190.0" font-size="11" fill="#16161c" text-anchor="middle" font-family="ui-monospace,SFMono-Regular,Consolas,monospace" font-weight="700" >N</text><text x="150.0" y="520.0" font-size="12" fill="#16161c" text-anchor="start" font-family=""Hiragino Sans","Noto Sans JP","Yu Gothic UI",ui-sans-serif,system-ui,sans-serif" font-weight="600" >平面図</text><line x1="870.0" y1="300.0" x2="1092.4" y2="300.0" stroke="#16161c" stroke-width="1.6"/><rect x="880.0" y="236.8" width="202.4" height="63.2" fill="#fbfaf7" stroke="#16161c" stroke-width="1.2" /><rect x="874.9" y="233.0" width="212.5" height="3.8" fill="#2a2731" stroke="none" stroke-width="1.0" /><rect x="892.6" y="249.4" width="25.3" height="25.3" fill="#dfe6ee" stroke="#16161c" stroke-width="1.0" /><line x1="905.3" y1="249.4" x2="905.3" y2="274.7" stroke="#16161c" stroke-width="0.7"/><rect x="943.2" y="249.4" width="25.3" height="25.3" fill="#dfe6ee" stroke="#16161c" stroke-width="1.0" /><line x1="955.9" y1="249.4" x2="955.9" y2="274.7" stroke="#16161c" stroke-width="0.7"/><rect x="993.9" y="249.4" width="25.3" height="25.3" fill="#dfe6ee" stroke="#16161c" stroke-width="1.0" /><line x1="1006.5" y1="249.4" x2="1006.5" y2="274.7" stroke="#16161c" stroke-width="0.7"/><rect x="1044.4" y="249.4" width="25.3" height="25.3" fill="#dfe6ee" stroke="#16161c" stroke-width="1.0" /><line x1="1057.1" y1="249.4" x2="1057.1" y2="274.7" stroke="#16161c" stroke-width="0.7"/><line x1="846.0" y1="236.8" x2="846.0" y2="300.0" stroke="#5f5a6b" stroke-width="0.8"/><line x1="843.0" y1="239.8" x2="849.0" y2="233.8" stroke="#5f5a6b" stroke-width="1.0"/><line x1="843.0" y1="303.0" x2="849.0" y2="297.0" stroke="#5f5a6b" stroke-width="1.0"/><text x="840.0" y="271.4" font-size="10" fill="#5f5a6b" text-anchor="middle" font-family="ui-monospace,SFMono-Regular,Consolas,monospace" font-weight="400" transform="rotate(-90 840.0 271.4)">2500</text><text x="880.0" y="326.0" font-size="12" fill="#16161c" text-anchor="start" font-family=""Hiragino Sans","Noto Sans JP","Yu Gothic UI",ui-sans-serif,system-ui,sans-serif" font-weight="600" >立面図（南）</text><text x="880.0" y="342.0" font-size="10" fill="#5f5a6b" text-anchor="start" font-family="ui-monospace,SFMono-Regular,Consolas,monospace" font-weight="400" >GL ±0 / 軒高 2,500</text><line x1="870.0" y1="470.0" x2="1092.4" y2="470.0" stroke="#16161c" stroke-width="1.6"/><rect x="880.0" y="466.2" width="202.4" height="3.8" fill="#2a2731" stroke="none" stroke-width="1.0" /><rect x="880.0" y="403.0" width="5.1" height="63.2" fill="#2a2731" stroke="none" stroke-width="1.0" /><rect x="1077.3" y="403.0" width="5.1" height="63.2" fill="#2a2731" stroke="none" stroke-width="1.0" /><rect x="978.7" y="403.0" width="5.1" height="63.2" fill="#2a2731" stroke="none" stroke-width="1.0" /><rect x="880.0" y="399.2" width="202.4" height="3.8" fill="#2a2731" stroke="none" stroke-width="1.0" /><line x1="1112.4" y1="403.0" x2="1112.4" y2="466.2" stroke="#5f5a6b" stroke-width="0.8"/><line x1="1109.4" y1="406.0" x2="1115.4" y2="400.0" stroke="#5f5a6b" stroke-width="1.0"/><line x1="1109.4" y1="469.2" x2="1115.4" y2="463.2" stroke="#5f5a6b" stroke-width="1.0"/><text x="1106.4" y="437.6" font-size="10" fill="#5f5a6b" text-anchor="middle" font-family="ui-monospace,SFMono-Regular,Consolas,monospace" font-weight="400" transform="rotate(-90 1106.4 437.6)">2500</text><text x="880.0" y="496.0" font-size="12" fill="#16161c" text-anchor="start" font-family=""Hiragino Sans","Noto Sans JP","Yu Gothic UI",ui-sans-serif,system-ui,sans-serif" font-weight="600" >A-A 断面図</text><text x="880.0" y="512.0" font-size="10" fill="#5f5a6b" text-anchor="start" font-family="ui-monospace,SFMono-Regular,Consolas,monospace" font-weight="400" >床 t150 / 壁 t200 / 屋根 t150</text><text x="880.0" y="560.0" font-size="12" fill="#16161c" text-anchor="start" font-family=""Hiragino Sans","Noto Sans JP","Yu Gothic UI",ui-sans-serif,system-ui,sans-serif" font-weight="600" >数量表（部品拾い）</text><line x1="880.0" y1="569.0" x2="1310.0" y2="569.0" stroke="#16161c" stroke-width="1.0"/><text x="880.0" y="582.0" font-size="10" fill="#5f5a6b" text-anchor="start" font-family="ui-monospace,SFMono-Regular,Consolas,monospace" font-weight="600" >部品</text><text x="1030.0" y="582.0" font-size="10" fill="#5f5a6b" text-anchor="start" font-family="ui-monospace,SFMono-Regular,Consolas,monospace" font-weight="600" >内容</text><text x="1180.0" y="582.0" font-size="10" fill="#5f5a6b" text-anchor="end" font-family="ui-monospace,SFMono-Regular,Consolas,monospace" font-weight="600" >数量</text><text x="1280.0" y="582.0" font-size="10" fill="#5f5a6b" text-anchor="end" font-family="ui-monospace,SFMono-Regular,Consolas,monospace" font-weight="600" >三角形</text><line x1="880.0" y1="590.0" x2="1310.0" y2="590.0" stroke="#c8c3d2" stroke-width="0.8"/><text x="880.0" y="609.0" font-size="10" fill="#16161c" text-anchor="start" font-family="ui-monospace,SFMono-Regular,Consolas,monospace" font-weight="400" >gain_wall_full</text><text x="1030.0" y="609.0" font-size="10" fill="#5f5a6b" text-anchor="start" font-family=""Hiragino Sans","Noto Sans JP","Yu Gothic UI",ui-sans-serif,system-ui,sans-serif" font-weight="400" >壁（開口なし）</text><text x="1180.0" y="609.0" font-size="10" fill="#16161c" text-anchor="end" font-family="ui-monospace,SFMono-Regular,Consolas,monospace" font-weight="400" >10</text><text x="1280.0" y="609.0" font-size="10" fill="#5f5a6b" text-anchor="end" font-family="ui-monospace,SFMono-Regular,Consolas,monospace" font-weight="400" >120</text><text x="880.0" y="628.0" font-size="10" fill="#16161c" text-anchor="start" font-family="ui-monospace,SFMono-Regular,Consolas,monospace" font-weight="400" >gain_wall_door</text><text x="1030.0" y="628.0" font-size="10" fill="#5f5a6b" text-anchor="start" font-family=""Hiragino Sans","Noto Sans JP","Yu Gothic UI",ui-sans-serif,system-ui,sans-serif" font-weight="400" >壁（ドア開口）</text><text x="1180.0" y="628.0" font-size="10" fill="#16161c" text-anchor="end" font-family="ui-monospace,SFMono-Regular,Consolas,monospace" font-weight="400" >6</text><text x="1280.0" y="628.0" font-size="10" fill="#5f5a6b" text-anchor="end" font-family="ui-monospace,SFMono-Regular,Consolas,monospace" font-weight="400" >216</text><text x="880.0" y="647.0" font-size="10" fill="#16161c" text-anchor="start" font-family="ui-monospace,SFMono-Regular,Consolas,monospace" font-weight="400" >gain_wall_window</text><text x="1030.0" y="647.0" font-size="10" fill="#5f5a6b" text-anchor="start" font-family=""Hiragino Sans","Noto Sans JP","Yu Gothic UI",ui-sans-serif,system-ui,sans-serif" font-weight="400" >壁（窓開口）</text><text x="1180.0" y="647.0" font-size="10" fill="#16161c" text-anchor="end" font-family="ui-monospace,SFMono-Regular,Consolas,monospace" font-weight="400" >7</text><text x="1280.0" y="647.0" font-size="10" fill="#5f5a6b" text-anchor="end" font-family="ui-monospace,SFMono-Regular,Consolas,monospace" font-weight="400" >336</text><text x="880.0" y="666.0" font-size="10" fill="#16161c" text-anchor="start" font-family="ui-monospace,SFMono-Regular,Consolas,monospace" font-weight="400" >gain_floor_2x2</text><text x="1030.0" y="666.0" font-size="10" fill="#5f5a6b" text-anchor="start" font-family=""Hiragino Sans","Noto Sans JP","Yu Gothic UI",ui-sans-serif,system-ui,sans-serif" font-weight="400" >床</text><text x="1180.0" y="666.0" font-size="10" fill="#16161c" text-anchor="end" font-family="ui-monospace,SFMono-Regular,Consolas,monospace" font-weight="400" >12</text><text x="1280.0" y="666.0" font-size="10" fill="#5f5a6b" text-anchor="end" font-family="ui-monospace,SFMono-Regular,Consolas,monospace" font-weight="400" >144</text><text x="880.0" y="685.0" font-size="10" fill="#16161c" text-anchor="start" font-family="ui-monospace,SFMono-Regular,Consolas,monospace" font-weight="400" >gain_roof_2x2</text><text x="1030.0" y="685.0" font-size="10" fill="#5f5a6b" text-anchor="start" font-family=""Hiragino Sans","Noto Sans JP","Yu Gothic UI",ui-sans-serif,system-ui,sans-serif" font-weight="400" >屋根</text><text x="1180.0" y="685.0" font-size="10" fill="#16161c" text-anchor="end" font-family="ui-monospace,SFMono-Regular,Consolas,monospace" font-weight="400" >12</text><text x="1280.0" y="685.0" font-size="10" fill="#5f5a6b" text-anchor="end" font-family="ui-monospace,SFMono-Regular,Consolas,monospace" font-weight="400" >144</text><text x="880.0" y="704.0" font-size="10" fill="#16161c" text-anchor="start" font-family="ui-monospace,SFMono-Regular,Consolas,monospace" font-weight="400" >gain_corner_post</text><text x="1030.0" y="704.0" font-size="10" fill="#5f5a6b" text-anchor="start" font-family=""Hiragino Sans","Noto Sans JP","Yu Gothic UI",ui-sans-serif,system-ui,sans-serif" font-weight="400" >柱</text><text x="1180.0" y="704.0" font-size="10" fill="#16161c" text-anchor="end" font-family="ui-monospace,SFMono-Regular,Consolas,monospace" font-weight="400" >13</text><text x="1280.0" y="704.0" font-size="10" fill="#5f5a6b" text-anchor="end" font-family="ui-monospace,SFMono-Regular,Consolas,monospace" font-weight="400" >156</text><line x1="880.0" y1="714.0" x2="1310.0" y2="714.0" stroke="#16161c" stroke-width="1.0"/><text x="880.0" y="733.0" font-size="11" fill="#16161c" text-anchor="start" font-family=""Hiragino Sans","Noto Sans JP","Yu Gothic UI",ui-sans-serif,system-ui,sans-serif" font-weight="700" >合計</text><text x="1180.0" y="733.0" font-size="11" fill="#16161c" text-anchor="end" font-family="ui-monospace,SFMono-Regular,Consolas,monospace" font-weight="700" >60 個</text><text x="1280.0" y="733.0" font-size="11" fill="#16161c" text-anchor="end" font-family="ui-monospace,SFMono-Regular,Consolas,monospace" font-weight="700" >1,116</text><text x="880.0" y="753.0" font-size="10" fill="#7a3b2e" text-anchor="start" font-family=""Hiragino Sans","Noto Sans JP","Yu Gothic UI",ui-sans-serif,system-ui,sans-serif" font-weight="400" >1棟あたり 60 プロップ。描画負荷の見積りはこの数字で行う</text><rect x="880.0" y="780.0" width="440.0" height="170.0" fill="#fbfaf7" stroke="#16161c" stroke-width="1.4" /><line x1="880.0" y1="810.0" x2="1320.0" y2="810.0" stroke="#16161c" stroke-width="1.0"/><text x="892.0" y="800.0" font-size="13" fill="#16161c" text-anchor="start" font-family=""Hiragino Sans","Noto Sans JP","Yu Gothic UI",ui-sans-serif,system-ui,sans-serif" font-weight="700" >木造平屋 48m2 A型</text><text x="892.0" y="830.0" font-size="9" fill="#5f5a6b" text-anchor="start" font-family="ui-monospace,SFMono-Regular,Consolas,monospace" font-weight="400" >図面</text><text x="946.0" y="830.0" font-size="10" fill="#16161c" text-anchor="start" font-family=""Hiragino Sans","Noto Sans JP","Yu Gothic UI",ui-sans-serif,system-ui,sans-serif" font-weight="400" >平面図・立面図・断面図・数量表</text><text x="892.0" y="849.0" font-size="9" fill="#5f5a6b" text-anchor="start" font-family="ui-monospace,SFMono-Regular,Consolas,monospace" font-weight="400" >縮尺</text><text x="946.0" y="849.0" font-size="10" fill="#16161c" text-anchor="start" font-family=""Hiragino Sans","Noto Sans JP","Yu Gothic UI",ui-sans-serif,system-ui,sans-serif" font-weight="400" >NTS（グリッド 2,000 基準）</text><text x="892.0" y="868.0" font-size="9" fill="#5f5a6b" text-anchor="start" font-family="ui-monospace,SFMono-Regular,Consolas,monospace" font-weight="400" >構法</text><text x="946.0" y="868.0" font-size="10" fill="#16161c" text-anchor="start" font-family=""Hiragino Sans","Noto Sans JP","Yu Gothic UI",ui-sans-serif,system-ui,sans-serif" font-weight="400" >モジュール組立 / 壁高 2500 / 壁厚 200</text><text x="892.0" y="887.0" font-size="9" fill="#5f5a6b" text-anchor="start" font-family="ui-monospace,SFMono-Regular,Consolas,monospace" font-weight="400" >延床</text><text x="946.0" y="887.0" font-size="10" fill="#16161c" text-anchor="start" font-family=""Hiragino Sans","Noto Sans JP","Yu Gothic UI",ui-sans-serif,system-ui,sans-serif" font-weight="400" >48.0 m²</text><text x="892.0" y="906.0" font-size="9" fill="#5f5a6b" text-anchor="start" font-family="ui-monospace,SFMono-Regular,Consolas,monospace" font-weight="400" >部品数</text><text x="946.0" y="906.0" font-size="10" fill="#16161c" text-anchor="start" font-family=""Hiragino Sans","Noto Sans JP","Yu Gothic UI",ui-sans-serif,system-ui,sans-serif" font-weight="400" >60 個</text><text x="892.0" y="925.0" font-size="9" fill="#5f5a6b" text-anchor="start" font-family="ui-monospace,SFMono-Regular,Consolas,monospace" font-weight="400" >日付</text><text x="946.0" y="925.0" font-size="10" fill="#16161c" text-anchor="start" font-family=""Hiragino Sans","Noto Sans JP","Yu Gothic UI",ui-sans-serif,system-ui,sans-serif" font-weight="400" >2026-09-05</text></svg>